<svg width="38" height="38" viewBox="0 0 38 38" fill="none" xmlns="http://www.w3.org/2000/svg">
<path d="M13.5712 38C10.7661 38 8.48193 35.796 8.48193 33.0862C8.48193 32.5437 8.93793 32.1035 9.49979 32.1035C10.0616 32.1035 10.5176 32.5437 10.5176 33.0862C10.5176 34.7125 11.8884 36.0345 13.5712 36.0345C15.2541 36.0345 16.6248 34.7125 16.6248 33.0862C16.6248 32.5437 17.0808 32.1035 17.6426 32.1035C18.2045 32.1035 18.6605 32.5437 18.6605 33.0862C18.6605 35.796 16.3765 38 13.5712 38Z" fill="#F8BB10"/>
<path d="M24.7678 34.069H2.37492C1.06532 34.069 0 33.0404 0 31.7759C0 31.1049 0.302673 30.4695 0.830488 30.0331C0.864532 30.0043 0.901062 29.9781 0.939083 29.9544C2.93131 28.2758 4.07143 25.8609 4.07143 23.3109V19.6551C4.07143 14.5973 8.3342 10.4828 13.5713 10.4828C13.7885 10.4828 14.0234 10.4866 14.2406 10.5221C14.7955 10.6111 15.1702 11.1183 15.0778 11.6529C14.9856 12.1875 14.4508 12.5493 13.9066 12.46C13.798 12.443 13.6787 12.4483 13.5713 12.4483C9.45668 12.4483 6.10714 15.6809 6.10714 19.6551V23.3109C6.10714 26.4768 4.66982 29.4724 2.16742 31.5281C2.14704 31.5439 2.1294 31.5583 2.10753 31.5727C2.071 31.6173 2.03571 31.6855 2.03571 31.7759C2.03571 31.954 2.19053 32.1034 2.37492 32.1034H24.7678C24.9524 32.1034 25.1072 31.954 25.1072 31.7759C25.1072 31.684 25.0719 31.6173 25.0339 31.5727C25.0135 31.5583 24.9959 31.5439 24.9755 31.5281C22.4716 29.4709 21.0358 26.4768 21.0358 23.3109V21.8829C21.0358 21.3404 21.4918 20.9001 22.0537 20.9001C22.6155 20.9001 23.0715 21.3404 23.0715 21.8829V23.3109C23.0715 25.8624 24.2129 28.2785 26.2078 29.9585C26.2444 29.982 26.2796 30.0069 26.3122 30.0345C26.8403 30.4695 27.1429 31.1049 27.1429 31.7759C27.1429 33.0404 26.0776 34.069 24.7678 34.069Z" fill="#F8BB10"/>
<path d="M27.143 20.9655C21.1563 20.9655 16.2856 16.2632 16.2856 10.483C16.2856 4.70268 21.1563 0 27.143 0C33.1297 0 37.9999 4.70268 37.9999 10.483C37.9999 16.2632 33.1297 20.9655 27.143 20.9655ZM27.143 3.14485C22.9519 3.14485 19.5428 6.43634 19.5428 10.483C19.5428 14.5292 22.9519 17.8207 27.143 17.8207C31.3337 17.8207 34.7428 14.5292 34.7428 10.483C34.7428 6.43634 31.3337 3.14485 27.143 3.14485Z" fill="#F8BB10"/>
</svg>
