<svg width="86" height="53" viewBox="0 0 86 53" fill="none" xmlns="http://www.w3.org/2000/svg">
<path d="M54.6117 19.0737C54.6117 22.4323 54.5857 25.7706 54.6272 29.1083C54.6397 30.1223 54.3832 30.5091 53.5272 30.4633C52.2099 30.3935 50.8879 30.4254 49.5685 30.4513C48.9803 30.4633 48.699 30.2207 48.7345 29.4617C48.7693 28.7157 48.699 27.9614 48.7516 27.2185C48.812 26.3676 48.5377 26.0957 47.8548 26.1067C45.6846 26.1417 43.5141 26.1187 41.3438 26.1187C39.0852 26.1187 36.8267 26.1423 34.5686 26.1064C33.8639 26.0951 33.5378 26.359 33.5858 27.2622C33.6272 28.0422 33.5803 28.829 33.5858 29.6127C33.5894 30.1922 33.3713 30.4482 32.8909 30.444C31.3955 30.4314 29.8986 30.4701 28.4058 30.4058C28.248 30.3534 28.106 30.2612 27.9934 30.1379C27.8807 30.0147 27.8011 29.8644 27.762 29.7014C27.7195 26.1833 27.7332 22.664 27.7332 19.0425C27.5955 18.9925 27.4503 18.9664 27.3039 18.9656C26.7888 19.0043 26.6298 18.6719 26.6397 18.1196C26.6441 17.8704 26.6345 17.6223 26.634 17.3716C26.6275 15.2098 26.6304 15.2412 28.3897 15.0101C28.6632 14.974 29.0378 14.5612 29.1278 14.2286C29.742 11.9271 30.3204 9.60988 30.8495 7.27698C31.0528 6.38026 31.3792 5.98241 32.1868 6.03659C33.4149 6.1193 34.6498 6.02611 35.8812 6.07009C36.5073 6.0926 36.7153 5.78767 36.6883 5.06762C36.6603 4.32113 36.6937 3.5715 36.6883 2.82319C36.6847 2.24291 36.904 1.99321 37.3849 1.99478C39.9659 2.00508 42.547 2.00446 45.1282 1.99294C45.6392 1.99033 45.8886 2.21072 45.8661 2.8669C45.8417 3.57805 45.9073 4.29705 45.8516 5.00297C45.7813 5.88687 46.0999 6.09941 46.7639 6.07166C47.9355 6.02272 49.111 6.09783 50.2825 6.04339C50.9307 6.01329 51.2275 6.31796 51.4007 7.05502C51.9475 9.38452 52.5617 11.6899 53.1002 14.0215C53.2816 14.8125 53.6008 15.0782 54.2754 15.0648C56.2458 15.0266 56.0272 14.8235 56.0383 17.1431C56.0435 18.7182 56.0373 18.7182 54.6117 19.0737ZM33.6537 20.268H48.5963C48.53 19.8974 48.4926 19.5919 48.42 19.2995C47.8924 17.1889 47.3249 15.0921 46.8409 12.9672C46.6519 12.1359 46.3537 11.8459 45.6281 11.8635C43.1651 11.9229 40.7022 11.886 38.2392 11.886C35.7991 11.886 35.7952 11.8847 35.0762 14.6767C34.6049 16.5007 34.1465 18.3288 33.6537 20.268Z" fill="#1B2074"/>
<path d="M17.0417 10.5992C16.0821 10.5791 15.1231 10.6621 14.1808 10.8468C13.5151 10.9739 12.9108 11.3227 12.4645 11.8373C12.007 12.436 11.7187 13.1488 11.6305 13.8998C11.4725 15.0362 11.4017 16.1833 11.4189 17.3307V19.9049C11.3996 21.0435 11.4816 22.1815 11.6639 23.3052C11.7721 24.0593 12.0763 24.7711 12.5454 25.368C13.0024 25.8813 13.61 26.2337 14.2793 26.3739C15.2088 26.5709 16.1576 26.6598 17.1071 26.6388H19.6398C20.1305 26.6388 20.6647 26.6334 21.2425 26.6228C21.4916 26.6181 21.7559 26.6121 22.0356 26.605C22.1778 26.6014 22.3191 26.63 22.449 26.6886C22.5789 26.7473 22.6942 26.8346 22.7863 26.944C22.8785 27.0535 22.9453 27.1824 22.9817 27.3213C23.0181 27.4602 23.0233 27.6055 22.9969 27.7467L22.6443 29.6113C22.6028 29.8268 22.4898 30.0215 22.3239 30.1635C22.1581 30.3055 21.9493 30.3862 21.732 30.3924C20.7724 30.4199 19.9335 30.4337 19.2154 30.4337H16.9756C15.3562 30.4706 13.7394 30.2817 12.171 29.8726C10.9954 29.5635 9.9231 28.9426 9.06512 28.0744C8.23289 27.1597 7.65751 26.0374 7.39835 24.8233C7.04145 23.1987 6.87662 21.5371 6.90731 19.8733V17.331C6.87396 15.6547 7.04965 13.9809 7.43024 12.349C7.71107 11.1323 8.30323 10.0112 9.14756 9.09789C10.0049 8.23609 11.0781 7.62569 12.2525 7.33193C13.787 6.94955 15.3647 6.77223 16.945 6.80451H19.4456C20.1216 6.80451 20.9401 6.81612 21.9013 6.83932C22.0395 6.84283 22.1754 6.87665 22.2994 6.93845C22.4234 7.00025 22.5326 7.08854 22.6195 7.19721C22.7063 7.30587 22.7687 7.43231 22.8023 7.56776C22.8359 7.7032 22.84 7.8444 22.8141 7.98157L22.4571 9.86453C22.4154 10.0877 22.2966 10.2886 22.1219 10.4316C21.9472 10.5746 21.7279 10.6503 21.5031 10.6453C20.9647 10.6334 20.377 10.6236 19.7401 10.6157C18.7691 10.6047 17.8696 10.5992 17.0417 10.5992Z" fill="#1B2074"/>
<path d="M59.0288 7.84279C59.0288 7.56734 59.1372 7.30317 59.3301 7.1084C59.523 6.91362 59.7847 6.8042 60.0575 6.8042H69.1197C71.5754 6.8042 73.3562 7.27996 74.4622 8.23148C75.5682 9.18299 76.1213 10.6652 76.1215 12.6782V13.0103C76.1573 14.0823 75.902 15.1438 75.3831 16.0798C75.163 16.45 74.8856 16.7822 74.5615 17.0639C74.4434 17.1649 74.3497 17.2917 74.2876 17.4348C74.2255 17.5779 74.1966 17.7334 74.2031 17.8895C74.2096 18.0456 74.2513 18.1981 74.3251 18.3354C74.3989 18.4727 74.5028 18.5912 74.6289 18.6818C75.0749 18.9871 75.4689 19.3635 75.7956 19.7963C76.4722 20.6927 76.815 21.9041 76.815 23.43V23.9624C76.815 26.2406 76.1355 27.889 74.7764 28.9077C73.4174 29.9264 71.5109 30.4351 69.0569 30.4337H60.0575C59.7847 30.4336 59.5231 30.3242 59.3302 30.1294C59.1373 29.9347 59.0289 29.6705 59.0288 29.3951V7.84279ZM63.4002 11.4606V15.3561C63.4001 15.4925 63.4267 15.6276 63.4784 15.7536C63.5301 15.8796 63.6058 15.9942 63.7014 16.0906C63.7969 16.1871 63.9103 16.2636 64.0352 16.3158C64.16 16.3681 64.2938 16.3949 64.4289 16.3949H68.3652C69.6116 16.3949 70.4881 16.1627 70.9949 15.6982C71.4978 15.2333 71.7493 14.4811 71.7493 13.4414V13.0106C71.7493 12.08 71.5139 11.416 71.0431 11.0185C70.5723 10.621 69.7777 10.4221 68.6595 10.4217H64.4289C64.2938 10.4217 64.16 10.4486 64.0352 10.5008C63.9103 10.553 63.7969 10.6295 63.7014 10.726C63.6058 10.8225 63.5301 10.937 63.4784 11.063C63.4267 11.1891 63.4001 11.3242 63.4002 11.4606ZM63.4002 25.7778C63.4002 26.0533 63.5085 26.3175 63.7015 26.5122C63.8944 26.707 64.1561 26.8164 64.4289 26.8164H68.8563C70.1482 26.8164 71.0578 26.5896 71.585 26.1359C72.1092 25.6833 72.3741 24.8583 72.3741 23.6632V23.2324C72.3741 21.9935 72.089 21.1306 71.5186 20.6438C70.9482 20.1569 69.9841 19.9134 68.6263 19.9133H64.4289C64.2938 19.9132 64.16 19.9401 64.0352 19.9922C63.9104 20.0444 63.7969 20.1209 63.7014 20.2174C63.6059 20.3138 63.5301 20.4283 63.4784 20.5543C63.4267 20.6804 63.4001 20.8154 63.4002 20.9518V25.7778Z" fill="#1B2074"/>
<path d="M8.06641 33.3945H13.0076C14.2092 33.3945 15.0811 33.6275 15.6233 34.0934C16.1655 34.5593 16.4364 35.2851 16.4361 36.2708V36.4334C16.4533 36.9584 16.3278 37.4782 16.0731 37.9363C15.8078 38.3621 15.4083 38.6855 14.9388 38.8542C15.47 38.9988 15.9394 39.3156 16.2748 39.7559C16.6319 40.277 16.8073 40.903 16.7736 41.5357V41.7956C16.7736 42.9124 16.4409 43.7195 15.7755 44.217C15.11 44.7145 14.1767 44.9636 12.9755 44.9643H8.06641V33.3945ZM10.2074 35.1657V38.0907H12.6374C13.2489 38.0907 13.6781 37.9773 13.9249 37.7504C14.0599 37.6028 14.1627 37.4282 14.2265 37.2378C14.2903 37.0475 14.3136 36.8457 14.2951 36.6456V36.4334C14.3126 36.255 14.2907 36.075 14.2308 35.9063C14.1709 35.7376 14.0745 35.5845 13.9487 35.4581C13.7182 35.2632 13.3293 35.1657 12.7821 35.1657H10.2074ZM10.2074 43.1931H12.879C13.5118 43.1931 13.9569 43.082 14.2145 42.8599C14.472 42.6377 14.6008 42.2342 14.601 41.6493V41.4381C14.601 40.8316 14.4615 40.4091 14.1826 40.1708C13.9036 39.9324 13.4314 39.8131 12.766 39.813H10.2074V43.1931Z" fill="#F8BB10"/>
<path d="M23.2908 45.2563C22.4502 45.2793 21.6113 45.1696 20.8043 44.9312C20.2107 44.7504 19.6767 44.4107 19.2591 43.9481C18.8604 43.4727 18.589 42.9021 18.4707 42.2907C18.3159 41.5235 18.2431 40.7418 18.2534 39.9589V38.3827C18.2445 37.6191 18.3147 36.8567 18.4626 36.1079C18.5779 35.4986 18.8436 34.9285 19.2352 34.4505C19.6493 33.9804 20.1798 33.63 20.7724 33.4352C21.5867 33.1777 22.4379 33.0595 23.2908 33.0856C24.1341 33.0628 24.9757 33.1724 25.7856 33.4106C26.3821 33.5901 26.919 33.9299 27.3389 34.3937C27.7376 34.8691 28.0091 35.4397 28.1273 36.0511C28.282 36.8183 28.3549 37.6001 28.3445 38.3829V39.9591C28.3532 40.7227 28.2831 41.485 28.1356 42.2339C28.0203 42.8433 27.7544 43.4133 27.3627 43.8913C26.9466 44.3629 26.4131 44.7135 25.8175 44.9068C25.0003 45.1638 24.1464 45.2819 23.2908 45.2563ZM23.2908 43.4199C23.7664 43.4299 24.2417 43.386 24.7077 43.289C25.0415 43.2207 25.3439 43.0438 25.5687 42.7854C25.8035 42.4754 25.9533 42.1083 26.0029 41.7212C26.0933 41.1217 26.1337 40.5157 26.1237 39.9094V38.4306C26.1334 37.8298 26.093 37.2292 26.0029 36.6353C25.9522 36.2458 25.8026 35.8761 25.5687 35.5622C25.3459 35.2998 25.043 35.1199 24.7077 35.0507C23.7711 34.8771 22.811 34.8771 21.8745 35.0507C21.5407 35.1191 21.2383 35.296 21.0135 35.5543C20.779 35.8638 20.6316 36.2315 20.5867 36.6185C20.5025 37.2186 20.4648 37.8244 20.4742 38.4303V39.9092C20.4651 40.5096 20.5028 41.1099 20.5867 41.7044C20.6323 42.094 20.7796 42.4643 21.0135 42.7776C21.236 43.0402 21.539 43.2202 21.8745 43.2893C22.3402 43.3863 22.8153 43.4302 23.2908 43.4202V43.4199Z" fill="#F8BB10"/>
<path d="M35.2815 45.2563C34.4409 45.2793 33.6018 45.1697 32.7947 44.9312C32.2013 44.7505 31.6675 44.4107 31.25 43.9481C30.8513 43.4727 30.5798 42.9021 30.4614 42.2907C30.3066 41.5235 30.2338 40.7418 30.2441 39.9589V38.3827C30.2354 37.6191 30.3056 36.8568 30.4533 36.1079C30.5686 35.4986 30.8343 34.9285 31.2259 34.4505C31.6401 33.9805 32.1706 33.6301 32.7631 33.4353C33.5775 33.1777 34.4289 33.0595 35.282 33.0856C36.1252 33.0628 36.9668 33.1725 37.7766 33.4106C38.3731 33.5901 38.91 33.93 39.3298 34.3938C39.7286 34.8692 40.0001 35.4397 40.1185 36.0511C40.2731 36.8183 40.3459 37.6001 40.3358 38.383V39.9592C40.3443 40.7227 40.2742 41.4851 40.1265 42.2339C40.0113 42.8432 39.7456 43.4133 39.3539 43.8913C38.9377 44.3628 38.4043 44.7134 37.8088 44.9068C36.9913 45.1639 36.1373 45.2819 35.2815 45.2563ZM35.2815 43.4199C35.7571 43.4299 36.2322 43.386 36.6981 43.289C37.032 43.2209 37.3345 43.044 37.5591 42.7854C37.7941 42.4755 37.9439 42.1084 37.9934 41.7212C38.0839 41.1218 38.1243 40.5157 38.1142 39.9094V38.4306C38.124 37.8298 38.0836 37.2292 37.9934 36.6353C37.9427 36.2458 37.7931 35.8761 37.5591 35.5622C37.3359 35.3004 37.0327 35.1212 36.6973 35.0528C35.7608 34.8793 34.8007 34.8793 33.8641 35.0528C33.5304 35.1212 33.2279 35.2981 33.0032 35.5564C32.7689 35.866 32.6216 36.2337 32.5767 36.6206C32.4924 37.2207 32.4548 37.8265 32.4642 38.4324V39.9113C32.4551 40.5117 32.4927 41.112 32.5767 41.7065C32.6224 42.096 32.7695 42.4663 33.0032 42.7797C33.2257 43.0423 33.5287 43.2223 33.8641 43.2914C34.3303 43.3877 34.8058 43.4309 35.2815 43.4202V43.4199Z" fill="#F8BB10"/>
<path d="M44.6815 38.3179L49.1228 33.394H51.5858L46.5821 38.8702L52.151 44.9635H49.3331L44.6815 39.7313V44.9635H42.5244V33.3946H44.6815V38.3179Z" fill="#F8BB10"/>
<path d="M56.011 33.3945V44.9635H53.8706V33.3945H56.011Z" fill="#F8BB10"/>
<path d="M59.6967 33.3945L65.1857 41.4219V33.3945H67.3116V44.9635H65.4449L59.9886 37.0016V44.9635H57.8481V33.3945H59.6967Z" fill="#F8BB10"/>
<path d="M78.2221 38.708V43.3387C78.2564 43.7599 78.158 44.1813 77.9411 44.5427C77.8267 44.676 77.6841 44.7817 77.5239 44.852C77.3636 44.9223 77.1899 44.9554 77.0153 44.949C76.9833 44.949 76.8226 44.9516 76.5331 44.9568C76.2436 44.962 75.9297 44.9648 75.5914 44.9649H74.1671C73.3472 44.9849 72.5288 44.8864 71.7365 44.6726C71.1543 44.515 70.6255 44.2004 70.2069 43.7625C69.8161 43.3214 69.5419 42.7878 69.4099 42.2111C69.2424 41.4787 69.164 40.7283 69.1766 39.9767V38.3683C69.1669 37.6361 69.2423 36.9053 69.4014 36.1908C69.5299 35.6046 69.8105 35.0634 70.2144 34.6227C70.6564 34.1753 71.2053 33.8508 71.8081 33.6805C72.638 33.4479 73.4976 33.341 74.3587 33.3632C75.0236 33.3632 75.6218 33.3661 76.1535 33.3719C76.6852 33.3776 77.2565 33.3857 77.8675 33.396L77.5304 35.2645C77.0579 35.2539 76.6502 35.2459 76.3072 35.2404C75.9643 35.235 75.6692 35.2323 75.4219 35.2323H74.2293C73.7518 35.2231 73.2746 35.2639 72.8054 35.354C72.475 35.4138 72.1711 35.5758 71.9359 35.8176C71.7061 36.0895 71.5581 36.4221 71.5091 36.7761C71.4248 37.3134 71.387 37.8571 71.3964 38.401V39.9282C71.3852 40.4863 71.4287 41.0442 71.526 41.5937C71.5823 41.9466 71.7328 42.2773 71.9613 42.5504C72.1838 42.7829 72.4748 42.9366 72.7909 42.9888C73.2293 43.0665 73.6741 43.1016 74.1191 43.0935H76.0825V40.4303H74.1347L74.4893 38.7077L78.2221 38.708Z" fill="#F8BB10"/>
<path d="M1.96803 29.3559H0V0H26.1203V1.98766H1.96803V29.3559Z" fill="#F8BB10"/>
<path d="M85.9993 52.9999H59.8779V51.0122H84.0305V23.644H85.9993V52.9999Z" fill="#1B2074"/>
</svg>
