<svg width="12" height="17" viewBox="0 0 12 17" fill="none" xmlns="http://www.w3.org/2000/svg">
<path d="M6 0C2.69158 0 0 2.76191 0 6.15673C0 10.3698 5.36941 16.5549 5.59802 16.8161C5.81275 17.0615 6.18764 17.0611 6.40198 16.8161C6.63059 16.5549 12 10.3698 12 6.15673C11.9999 2.76191 9.30839 0 6 0ZM6 9.25435C4.33545 9.25435 2.98128 7.86477 2.98128 6.15673C2.98128 4.44869 4.33549 3.05914 6 3.05914C7.66452 3.05914 9.01869 4.44873 9.01869 6.15676C9.01869 7.8648 7.66452 9.25435 6 9.25435Z" fill="#DC2C2C"/>
</svg>
