<svg width="24" height="32" viewBox="0 0 24 32" fill="none" xmlns="http://www.w3.org/2000/svg">
<path d="M12.0003 0C5.61001 0 0.411133 5.19887 0.411133 11.5891C0.411133 19.5196 10.7823 31.1621 11.2239 31.6538C11.6386 32.1157 12.3628 32.1149 12.7768 31.6538C13.2183 31.1621 23.5895 19.5196 23.5895 11.5891C23.5894 5.19887 18.3906 0 12.0003 0ZM12.0003 17.4199C8.7852 17.4199 6.16957 14.8042 6.16957 11.5891C6.16957 8.374 8.78526 5.75838 12.0003 5.75838C15.2154 5.75838 17.831 8.37406 17.831 11.5892C17.831 14.8043 15.2154 17.4199 12.0003 17.4199Z" fill="#BABABA"/>
</svg>
