<svg width="29" height="29" viewBox="0 0 29 29" fill="none" xmlns="http://www.w3.org/2000/svg">
<circle cx="14.5" cy="14.5" r="14.5" fill="white"/>
<path d="M21.8624 18.0502L17.3122 13.5L21.8624 8.94983C21.9496 8.86158 21.9985 8.74252 21.9985 8.61846C21.9985 8.4944 21.9496 8.37534 21.8624 8.28709L19.7129 6.13762C19.6695 6.094 19.6178 6.05939 19.5609 6.03577C19.5041 6.01216 19.4431 6 19.3815 6C19.32 6 19.259 6.01216 19.2021 6.03577C19.1453 6.05939 19.0936 6.094 19.0502 6.13762L14.5 10.6878L9.94983 6.13762C9.86194 6.04975 9.74275 6.00039 9.61846 6.00039C9.49418 6.00039 9.37498 6.04975 9.28709 6.13762L7.13762 8.28709C7.094 8.33055 7.05939 8.38219 7.03577 8.43906C7.01216 8.49592 7 8.55689 7 8.61846C7 8.68004 7.01216 8.741 7.03577 8.79787C7.05939 8.85473 7.094 8.90638 7.13762 8.94983L11.6878 13.5L7.13762 18.0502C7.04975 18.1381 7.00039 18.2573 7.00039 18.3815C7.00039 18.5058 7.04975 18.625 7.13762 18.7129L9.28709 20.8624C9.33055 20.906 9.38219 20.9406 9.43906 20.9642C9.49592 20.9878 9.55689 21 9.61846 21C9.68004 21 9.741 20.9878 9.79787 20.9642C9.85473 20.9406 9.90638 20.906 9.94983 20.8624L14.5 16.3122L19.0502 20.8624C19.1381 20.9502 19.2573 20.9996 19.3815 20.9996C19.5058 20.9996 19.625 20.9502 19.7129 20.8624L21.8624 18.7129C21.906 18.6695 21.9406 18.6178 21.9642 18.5609C21.9878 18.5041 22 18.4431 22 18.3815C22 18.32 21.9878 18.259 21.9642 18.2021C21.9406 18.1453 21.906 18.0936 21.8624 18.0502Z" fill="#E92A17"/>
</svg>
