<svg width="16" height="22" viewBox="0 0 16 22" fill="none" xmlns="http://www.w3.org/2000/svg">
<path d="M8 0C3.58878 0 0 3.57423 0 7.96753C0 13.4198 7.15922 21.4239 7.46403 21.762C7.75033 22.0796 8.25019 22.079 8.53597 21.762C8.84078 21.4239 16 13.4198 16 7.96753C15.9999 3.57423 12.4112 0 8 0ZM8 11.9762C5.7806 11.9762 3.97504 10.1779 3.97504 7.96753C3.97504 5.75713 5.78065 3.95889 8 3.95889C10.2194 3.95889 12.0249 5.75717 12.0249 7.96758C12.0249 10.178 10.2194 11.9762 8 11.9762Z" fill="#E92A17"/>
<path d="M9.9633 9.21338L8.74992 8L9.9633 6.78662C9.98655 6.76309 9.99959 6.73134 9.99959 6.69826C9.99959 6.66517 9.98655 6.63343 9.9633 6.60989L9.39011 6.0367C9.37852 6.02507 9.36475 6.01584 9.34959 6.00954C9.33442 6.00324 9.31816 6 9.30174 6C9.28532 6 9.26907 6.00324 9.2539 6.00954C9.23874 6.01584 9.22497 6.02507 9.21338 6.0367L8 7.25008L6.78662 6.0367C6.76318 6.01327 6.7314 6.0001 6.69826 6.0001C6.66511 6.0001 6.63333 6.01327 6.60989 6.0367L6.0367 6.60989C6.02507 6.62148 6.01584 6.63525 6.00954 6.65041C6.00324 6.66558 6 6.68184 6 6.69826C6 6.71468 6.00324 6.73093 6.00954 6.7461C6.01584 6.76126 6.02507 6.77503 6.0367 6.78662L7.25008 8L6.0367 9.21338C6.01327 9.23682 6.0001 9.2686 6.0001 9.30174C6.0001 9.33489 6.01327 9.36667 6.0367 9.39011L6.60989 9.9633C6.62148 9.97493 6.63525 9.98416 6.65041 9.99046C6.66558 9.99676 6.68184 10 6.69826 10C6.71468 10 6.73093 9.99676 6.7461 9.99046C6.76126 9.98416 6.77503 9.97493 6.78662 9.9633L8 8.74992L9.21338 9.9633C9.23682 9.98673 9.2686 9.9999 9.30174 9.9999C9.33489 9.9999 9.36667 9.98673 9.39011 9.9633L9.9633 9.39011C9.97493 9.37852 9.98416 9.36475 9.99046 9.34959C9.99676 9.33442 10 9.31816 10 9.30174C10 9.28532 9.99676 9.26907 9.99046 9.2539C9.98416 9.23874 9.97493 9.22497 9.9633 9.21338Z" fill="#E92A17"/>
</svg>
