<svg width="29" height="29" viewBox="0 0 29 29" fill="none" xmlns="http://www.w3.org/2000/svg">
<circle cx="14.5" cy="14.5" r="14.5" fill="white"/>
<path d="M21.8624 19.0502L17.3122 14.5L21.8624 9.94983C21.9496 9.86158 21.9985 9.74252 21.9985 9.61846C21.9985 9.4944 21.9496 9.37534 21.8624 9.28709L19.7129 7.13762C19.6695 7.094 19.6178 7.05939 19.5609 7.03577C19.5041 7.01216 19.4431 7 19.3815 7C19.32 7 19.259 7.01216 19.2021 7.03577C19.1453 7.05939 19.0936 7.094 19.0502 7.13762L14.5 11.6878L9.94983 7.13762C9.86194 7.04975 9.74275 7.00039 9.61846 7.00039C9.49418 7.00039 9.37498 7.04975 9.28709 7.13762L7.13762 9.28709C7.094 9.33055 7.05939 9.38219 7.03577 9.43906C7.01216 9.49592 7 9.55689 7 9.61846C7 9.68004 7.01216 9.741 7.03577 9.79787C7.05939 9.85473 7.094 9.90638 7.13762 9.94983L11.6878 14.5L7.13762 19.0502C7.04975 19.1381 7.00039 19.2573 7.00039 19.3815C7.00039 19.5058 7.04975 19.625 7.13762 19.7129L9.28709 21.8624C9.33055 21.906 9.38219 21.9406 9.43906 21.9642C9.49592 21.9878 9.55689 22 9.61846 22C9.68004 22 9.741 21.9878 9.79787 21.9642C9.85473 21.9406 9.90638 21.906 9.94983 21.8624L14.5 17.3122L19.0502 21.8624C19.1381 21.9502 19.2573 21.9996 19.3815 21.9996C19.5058 21.9996 19.625 21.9502 19.7129 21.8624L21.8624 19.7129C21.906 19.6695 21.9406 19.6178 21.9642 19.5609C21.9878 19.5041 22 19.4431 22 19.3815C22 19.32 21.9878 19.259 21.9642 19.2021C21.9406 19.1453 21.906 19.0936 21.8624 19.0502Z" fill="#C2C2C2"/>
</svg>
