<svg width="32" height="32" viewBox="0 0 32 32" fill="none" xmlns="http://www.w3.org/2000/svg">
<path d="M19.3106 5.49239C20.7902 6.59475 21.8277 8.46019 22.0166 10.6255C22.62 10.9606 23.2898 11.1532 23.9998 11.1532C26.592 11.1532 28.693 8.65665 28.693 5.57685C28.693 2.49658 26.592 0 23.9998 0C21.4324 0.00094909 19.3498 2.45292 19.3106 5.49239ZM16.236 16.9109C18.8282 16.9109 20.9292 14.4138 20.9292 11.334C20.9292 8.25424 18.8278 5.75766 16.236 5.75766C13.6442 5.75766 11.542 8.25471 11.542 11.3345C11.542 14.4143 13.6442 16.9109 16.236 16.9109ZM18.2268 17.291H14.2445C10.931 17.291 8.23542 20.4947 8.23542 24.432V30.219L8.2478 30.3097L8.58325 30.4345C11.7453 31.6085 14.4924 32 16.7536 32C21.17 32 23.7298 30.5038 23.8876 30.4084L24.2011 30.22H24.2346V24.432C24.2358 20.4947 21.5402 17.291 18.2268 17.291ZM25.9914 11.5338H22.0398C21.9971 13.4125 21.3222 15.1043 20.2547 16.321C23.1999 17.3617 25.3548 20.6071 25.3548 24.4405V26.2238C29.2565 26.054 31.5048 24.7399 31.653 24.6517L31.9665 24.4628H32V18.6738C32 14.737 29.3044 11.5338 25.9914 11.5338ZM8.001 11.1542C8.91911 11.1542 9.77332 10.8358 10.4969 10.2934C10.727 8.51049 11.5313 6.95256 12.6802 5.89148C12.685 5.78708 12.6934 5.68363 12.6934 5.57828C12.6934 2.49801 10.592 0.00142353 8.001 0.00142353C5.40841 0.00142353 3.30782 2.49801 3.30782 5.57828C3.30782 8.65713 5.40841 11.1542 8.001 11.1542ZM12.2157 16.321C11.1535 15.1105 10.481 13.4277 10.4318 11.5604C10.2853 11.5476 10.1403 11.5338 9.99096 11.5338H6.00904C2.69562 11.5338 0 14.737 0 18.6738V24.4619L0.0123799 24.5511L0.347835 24.6768C2.88451 25.6178 5.14843 26.0516 7.11484 26.1882V24.4405C7.11564 20.6071 9.26974 17.3627 12.2157 16.321Z" fill="#BABABA"/>
</svg>
