<svg width="32" height="32" viewBox="0 0 32 32" fill="none" xmlns="http://www.w3.org/2000/svg">
<path d="M32 9.00161C32 10.0346 31.8174 11.0588 31.4535 12.0603C29.8507 16.4725 27.2402 20.568 23.9041 23.9041C20.5681 27.2403 16.4726 29.8508 12.0604 31.4535C10.6424 31.9686 9.17875 32.1206 7.70981 31.9052C6.33387 31.7034 4.99811 31.1704 3.8469 30.3638C2.69064 29.5536 1.72893 28.4735 1.06577 27.2403C0.35861 25.9252 -3.28279e-07 24.4899 -3.94543e-07 22.9739C-4.15152e-07 22.5024 0.329424 22.0949 0.790405 21.9961L8.11504 20.4266C8.44671 20.3555 8.79183 20.4574 9.03169 20.6972L11.7136 23.3792C16.7438 20.8492 20.8491 16.7438 23.3791 11.7136L20.6972 9.03173C20.4573 8.79187 20.3555 8.44669 20.4265 8.11508L21.996 0.790406C22.0948 0.32936 22.5023 -9.83608e-07 22.9738 -1.00422e-06C24.4897 -1.07048e-06 25.9252 0.358611 27.2403 1.06583C28.4735 1.729 29.5535 2.69071 30.3637 3.84698C31.1703 4.99813 31.7033 6.33389 31.9051 7.70991C31.9684 8.14108 31.9999 8.57219 32 9.00161ZM2.04367 23.7729C2.26441 25.7725 3.31249 27.5473 4.99461 28.7259C6.88609 30.0512 9.21256 30.3603 11.3776 29.5738C19.8601 26.4924 26.4924 19.8601 29.5738 11.3775C30.3603 9.21254 30.0513 6.88606 28.7259 4.9945C27.5473 3.31238 25.7725 2.26429 23.7729 2.04355L22.4961 8.00214L25.297 10.803C25.595 11.1011 25.6742 11.554 25.495 11.9353C22.7001 17.8845 17.8845 22.7001 11.9354 25.4949C11.554 25.6741 11.1011 25.595 10.8031 25.297L8.00223 22.4961L2.04367 23.7729Z" fill="#F8BB10"/>
</svg>
