<svg width="18" height="25" viewBox="0 0 18 25" fill="none" xmlns="http://www.w3.org/2000/svg">
<path d="M9 0C4.03737 0 0 4.06163 0 9.05402C0 15.2497 8.05412 24.3454 8.39703 24.7296C8.71912 25.0905 9.28146 25.0898 9.60297 24.7296C9.94588 24.3454 18 15.2497 18 9.05402C17.9999 4.06163 13.9626 0 9 0ZM9 13.6093C6.50318 13.6093 4.47192 11.5658 4.47192 9.05402C4.47192 6.5422 6.50323 4.49874 9 4.49874C11.4968 4.49874 13.528 6.54224 13.528 9.05406C13.528 11.5659 11.4968 13.6093 9 13.6093Z" fill="#06D6A0"/>
<path d="M11.0673 7.12753C11.171 7.04483 11.309 6.99911 11.4522 7.00001C11.5953 7.00092 11.7324 7.04839 11.8346 7.13239C11.9368 7.2164 11.996 7.33038 11.9998 7.45027C12.0036 7.57017 11.9516 7.68661 11.8549 7.77503L8.91814 10.8522C8.86764 10.8978 8.80669 10.9343 8.73894 10.9597C8.67119 10.9851 8.59802 10.9988 8.52381 10.9999C8.44961 11.0011 8.37589 10.9897 8.30706 10.9664C8.23823 10.9431 8.17571 10.9085 8.12323 10.8645L6.1757 9.23282C6.12146 9.19048 6.07796 9.13942 6.04779 9.08269C6.01762 9.02595 6.00139 8.96471 6.00009 8.90261C5.99878 8.84051 6.01241 8.77883 6.04018 8.72124C6.06794 8.66365 6.10926 8.61133 6.16168 8.56742C6.2141 8.5235 6.27654 8.48888 6.34528 8.46561C6.41402 8.44235 6.48764 8.43093 6.56176 8.43203C6.63588 8.43312 6.70898 8.44671 6.77669 8.47199C6.84441 8.49727 6.90535 8.53372 6.95589 8.57916L8.49713 9.86984L11.0534 7.14109C11.058 7.13635 11.0629 7.13182 11.0681 7.12753H11.0673Z" fill="#06D6A0"/>
</svg>
