<svg width="29" height="29" viewBox="0 0 29 29" fill="none" xmlns="http://www.w3.org/2000/svg">
<circle cx="14.5" cy="14.5" r="14.5" fill="white"/>
<path d="M21.7357 8.44635C22.0986 8.15689 22.5815 7.99687 23.0825 8.00005C23.5836 8.00322 24.0635 8.16935 24.4212 8.46337C24.7788 8.7574 24.9861 9.15632 24.9993 9.57596C25.0126 9.9956 24.8307 10.4031 24.4921 10.7126L14.2135 21.4826C14.0367 21.6421 13.8234 21.7701 13.5863 21.859C13.3492 21.9478 13.0931 21.9957 12.8333 21.9997C12.5736 22.0038 12.3156 21.9639 12.0747 21.8824C11.8338 21.801 11.615 21.6797 11.4313 21.5258L4.61494 15.8149C4.42511 15.6667 4.27286 15.488 4.16726 15.2894C4.06166 15.0908 4.00488 14.8765 4.0003 14.6591C3.99572 14.4418 4.04345 14.2259 4.14062 14.0243C4.23779 13.8228 4.38243 13.6397 4.56589 13.486C4.74936 13.3322 4.9679 13.2111 5.20848 13.1297C5.44905 13.0482 5.70674 13.0083 5.96616 13.0121C6.22558 13.0159 6.48142 13.0635 6.71842 13.152C6.95542 13.2404 7.16872 13.368 7.3456 13.527L12.74 18.0444L21.6868 8.49383C21.7029 8.47721 21.7201 8.46136 21.7383 8.44635H21.7357Z" fill="#06D6A0"/>
</svg>
