<svg width="70" height="70" viewBox="0 0 70 70" fill="none" xmlns="http://www.w3.org/2000/svg">
<path d="M35 0C16.0265 0 0 16.0265 0 35C0 53.9735 16.0265 70 35 70C53.9735 70 70 53.9735 70 35C70 16.0265 53.9735 0 35 0ZM35 17.5C41.0445 17.5 45.5 21.952 45.5 28C45.5 34.048 41.0445 38.5 35 38.5C28.959 38.5 24.5 34.048 24.5 28C24.5 21.952 28.959 17.5 35 17.5ZM17.129 51.702C20.2685 47.082 25.5045 44.002 31.5 44.002H38.5C44.499 44.002 49.7315 47.082 52.871 51.702C48.398 56.49 42.0525 59.5 35 59.5C27.9475 59.5 21.602 56.49 17.129 51.702Z" fill="#F8BB10"/>
</svg>
